# Exported from ProBuilder
# http://www.procore3d.com/probuilder
# 05/15/2018 03:12:19

mtllib ./Flipper.mtl
o Flipper

g Flipper R
v 2.407418 -0.5000002 -1.088125 0 0.455 0.851
v -2.042403 -0.4999998 1.103655 0 0.455 0.851
v 2.407418 0.4999998 -1.088125 0 0.455 0.851
v -2.042404 0.5000005 1.103655 0 0.455 0.851
v -2.042403 -0.4999998 1.103655 0 0.455 0.851
v -2.407418 -0.5 0.06598282 0 0.455 0.851
v -2.042404 0.5000005 1.103655 0 0.455 0.851
v -2.407418 0.5 0.06598282 0 0.455 0.851
v -2.407418 -0.5 0.06598282 0 0.455 0.851
v 2.401783 -0.5000002 -1.103655 0 0.455 0.851
v -2.407418 0.5 0.06598282 0 0.455 0.851
v 2.401783 0.4999998 -1.103655 0 0.455 0.851
v 2.407418 0.4999998 -1.088125 0 0.455 0.851
v 2.407418 -0.5000002 -1.088125 0 0.455 0.851
v 2.401783 0.4999998 -1.103655 0 0.455 0.851
v 2.401783 -0.5000002 -1.103655 0 0.455 0.851
v -2.042404 0.5000005 1.103655 0 0.455 0.851
v -2.407418 0.5 0.06598282 0 0.455 0.851
v 2.401783 0.4999998 -1.103655 0 0.455 0.851
v 2.407418 0.4999998 -1.088125 0 0.455 0.851
v -2.042403 -0.4999998 1.103655 0 0.455 0.851
v 2.407418 -0.5000002 -1.088125 0 0.455 0.851
v 2.401783 -0.5000002 -1.103655 0 0.455 0.851
v -2.407418 -0.5 0.06598282 0 0.455 0.851

vn 0.4418623 2.014784E-07 0.8970829
vn 0.4418623 1.922604E-07 0.8970829
vn 0.4418623 2.106964E-07 0.8970829
vn 0.4418623 2.014784E-07 0.8970829
vn -0.9433386 -2.249094E-07 0.3318318
vn -0.9433385 0 0.3318319
vn -0.9433386 -4.498188E-07 0.3318316
vn -0.9433386 -2.249094E-07 0.3318318
vn -0.2363195 -4.81713E-08 -0.9716755
vn -0.2363195 -9.63426E-08 -0.9716755
vn -0.2363195 0 -0.9716754
vn -0.2363195 -4.81713E-08 -0.9716755
vn 0.9400241 4.482384E-07 -0.341108
vn 0.9400241 4.480733E-07 -0.341108
vn 0.9400241 4.480733E-07 -0.341108
vn 0.9400241 4.479081E-07 -0.341108
vn -5.441565E-08 1 -4.335998E-07
vn -5.728425E-08 1 -4.393754E-07
vn -5.441565E-08 1 -4.335998E-07
vn 1.36365E-07 1 -4.948298E-08
vn 4.375157E-09 -1 2.248353E-07
vn -9.091013E-08 -1 3.29887E-08
vn 4.375157E-09 -1 2.248353E-07
vn 5.807876E-09 -1 2.2772E-07

vt 2.412602 -0.5000002
vt -2.547722 -0.4999997
vt 2.412602 0.4999998
vt -2.547722 0.5000003
vt 0.55 -0.4999991
vt -0.5500001 -0.4999994
vt 0.5499997 0.500001
vt -0.5500003 0.5000006
vt 2.54232 -0.4999999
vt -2.40707 -0.5000001
vt 2.54232 0.5000001
vt -2.40707 0.4999999
vt 0.2016745 0.4999985
vt 0.2016744 -0.5000015
vt 0.218195 0.4999985
vt 0.2181948 -0.5000015
vt 0.5499999 -2.5
vt -0.5500001 -2.5
vt -0.05751737 2.424827
vt -0.04099894 2.42499
vt -0.5499998 -2.5
vt 0.04099905 2.42499
vt 0.05751749 2.424827
vt 0.5500002 -2.5

g Flipper R
usemtl Default_Prototype
f 3/3/3 4/4/4 2/2/2 1/1/1
f 7/7/7 8/8/8 6/6/6 5/5/5
f 11/11/11 12/12/12 10/10/10 9/9/9
f 16/16/16 15/15/15 13/13/13 14/14/14
f 18/18/18 17/17/17 20/20/20 19/19/19
f 24/24/24 23/23/23 22/22/22 21/21/21

